<svg width="20" height="20" viewBox="0 0 20 20" fill="none" xmlns="http://www.w3.org/2000/svg">
<path d="M13.9049 19.999C13.0765 19.998 12.2826 19.6682 11.6971 19.0821C11.1116 18.4961 10.7824 17.7017 10.7822 16.8734V13.9059C10.7829 13.0777 11.1117 12.2838 11.6971 11.6981C12.2825 11.1123 13.0768 10.7825 13.9049 10.7812H16.8734C17.4813 10.782 18.0763 10.9592 18.5851 11.2919C19.0939 11.6246 19.4948 12.0984 19.7393 12.655C19.8227 12.845 19.8274 13.0603 19.752 13.2536C19.6766 13.4469 19.527 13.6018 19.337 13.6852C19.147 13.7686 18.9317 13.7733 18.7384 13.6979C18.5451 13.6225 18.3892 13.4739 18.3058 13.2839C18.1845 13.0044 17.9845 12.7664 17.7297 12.5994C17.4749 12.4324 17.177 12.3433 16.8724 12.3435H13.9039C13.4897 12.3441 13.0923 12.5095 12.7995 12.8025C12.5067 13.0955 12.3418 13.4926 12.3416 13.9068V16.8743C12.3414 17.0796 12.3822 17.2832 12.4607 17.4729C12.5392 17.6626 12.6544 17.8345 12.7995 17.9797C12.9447 18.1248 13.1166 18.24 13.3063 18.3185C13.496 18.397 13.6996 18.4378 13.9049 18.4377H16.8734C17.0784 18.4377 17.2815 18.3971 17.471 18.3185C17.6604 18.2399 17.8329 18.1249 17.9777 17.9797C18.1226 17.8345 18.2374 17.6615 18.3156 17.4719C18.3938 17.2823 18.4332 17.0794 18.4328 16.8743C18.44 16.6717 18.5261 16.48 18.672 16.3392C18.8179 16.1984 19.0131 16.1195 19.2159 16.1195C19.4187 16.1195 19.6129 16.1984 19.7588 16.3392C19.9048 16.48 19.9908 16.6717 19.998 16.8743C19.9978 17.7031 19.669 18.498 19.0831 19.0841C18.4972 19.6702 17.7021 19.9995 16.8734 20L13.9049 19.999ZM3.12469 19.999C2.29604 19.9982 1.50178 19.6682 0.915926 19.0821C0.330076 18.4961 0.000529447 17.702 0 16.8734V13.9059C0.00105832 13.0775 0.330161 12.2829 0.915926 11.6971C1.50169 11.1113 2.2963 10.7822 3.12469 10.7812H6.09315C6.92155 10.7822 7.71616 11.1113 8.30192 11.6971C8.88769 12.2829 9.21679 13.0775 9.21785 13.9059V16.8734C9.21759 17.7021 8.88881 18.497 8.3029 19.0831C7.71699 19.6692 6.92189 19.9985 6.09315 19.999H3.12469ZM1.56332 13.9059V16.8734C1.56319 17.0786 1.60298 17.2823 1.68148 17.4719C1.75997 17.6616 1.87516 17.8336 2.02031 17.9787C2.16546 18.1239 2.33742 18.2391 2.5271 18.3175C2.71677 18.396 2.9204 18.4358 3.12567 18.4357H6.09413C6.50862 18.4357 6.9064 18.2718 7.19949 17.9787C7.49258 17.6856 7.65746 17.2878 7.65746 16.8734V13.9059C7.65666 13.4919 7.49125 13.0952 7.19852 12.8025C6.90578 12.5097 6.50909 12.3443 6.09511 12.3435H3.12665C2.9212 12.3434 2.71792 12.3841 2.52807 12.4627C2.33822 12.5412 2.16563 12.6563 2.02031 12.8015C1.87499 12.9467 1.76013 13.1194 1.68148 13.3092C1.60282 13.499 1.56235 13.7024 1.56235 13.9078L1.56332 13.9059ZM13.9059 9.22078C13.0774 9.21893 12.2834 8.8892 11.6981 8.3029C11.1127 7.7166 10.7837 6.92164 10.7831 6.09315V3.12274C10.7844 2.29496 11.1137 1.50126 11.6991 0.915926C12.2844 0.330594 13.0781 0.00132213 13.9059 0H16.8743C17.7025 0.000793186 18.4964 0.32956 19.0821 0.91495C19.6679 1.50034 19.9977 2.29461 19.999 3.12274V6.09315C19.9985 6.92199 19.6689 7.71654 19.0831 8.3029C18.4973 8.88926 17.7032 9.21946 16.8743 9.22078H13.9059ZM12.3435 3.12177V6.09218C12.3435 6.29737 12.3841 6.5012 12.4627 6.69075C12.5412 6.88031 12.6563 7.0525 12.8015 7.19754C12.9466 7.34258 13.1187 7.45697 13.3083 7.5354C13.4979 7.61383 13.7017 7.65466 13.9068 7.65453H16.8753C17.0803 7.65439 17.2836 7.61396 17.4729 7.5354C17.6622 7.45684 17.8339 7.34159 17.9787 7.19656C18.1236 7.05153 18.2383 6.8792 18.3166 6.68978C18.3949 6.50036 18.4358 6.29715 18.4357 6.09218V3.12177C18.4357 2.70798 18.2712 2.31104 17.9787 2.01836C17.6862 1.72567 17.2891 1.56066 16.8753 1.56039H13.9068C13.7014 1.56026 13.4981 1.60092 13.3083 1.67952C13.1184 1.75813 12.9458 1.87399 12.8005 2.01933C12.6553 2.16468 12.5402 2.33719 12.4617 2.5271C12.3832 2.71701 12.3423 2.92018 12.3425 3.12567L12.3435 3.12177ZM3.12567 9.22078C2.29692 9.21919 1.50264 8.8892 0.916903 8.3029C0.331166 7.7166 0.00176903 6.92191 0.000976467 6.09315V3.12274C0.00256362 2.29469 0.332172 1.50126 0.917879 0.915926C1.50359 0.330593 2.29762 0.00105703 3.12567 0H6.09413C6.92226 0.000793186 7.71616 0.32956 8.30192 0.91495C8.88769 1.50034 9.2175 2.29461 9.21883 3.12274V6.09315C9.2183 6.92199 8.88967 7.71654 8.30388 8.3029C7.71808 8.88926 6.92297 9.21946 6.09413 9.22078H3.12567ZM1.5643 3.12177V6.09218C1.5643 6.29737 1.6039 6.5012 1.68245 6.69075C1.76101 6.88031 1.87615 7.0525 2.02129 7.19754C2.16642 7.34258 2.33944 7.45697 2.52905 7.5354C2.71866 7.61383 2.92146 7.65466 3.12665 7.65453H6.09511C6.50943 7.65453 6.90741 7.48944 7.20047 7.19656C7.49353 6.90369 7.65817 6.5065 7.65843 6.09218V3.12177C7.65764 2.70787 7.49225 2.31093 7.19949 2.01836C6.90673 1.72579 6.50998 1.56092 6.09608 1.56039H3.12762C2.92197 1.56 2.71816 1.60103 2.52807 1.67952C2.33798 1.75801 2.16578 1.87298 2.02031 2.01836C1.87484 2.16373 1.75911 2.33608 1.6805 2.52612C1.60189 2.71616 1.56208 2.92001 1.56235 3.12567L1.5643 3.12177Z" fill="#404040"/>
</svg>
