<svg width="20" height="20" viewBox="0 0 20 20" fill="none" xmlns="http://www.w3.org/2000/svg">
<path d="M19.9461 17.1385C19.9039 16.9357 19.7829 16.7579 19.6097 16.6442C19.4364 16.5306 19.2251 16.4905 19.0223 16.5326C18.8194 16.5748 18.6416 16.6958 18.528 16.8691C18.4144 17.0423 18.3742 17.2536 18.4164 17.4565C18.4416 17.5755 18.4399 17.6988 18.4114 17.8171C18.3828 17.9354 18.3282 18.0459 18.2514 18.1403C18.1767 18.2343 18.0817 18.3102 17.9734 18.3621C17.8652 18.4141 17.7466 18.4408 17.6265 18.4403H2.37027C2.25021 18.4408 2.1316 18.4141 2.02336 18.3621C1.91512 18.3102 1.82008 18.2343 1.74538 18.1403C1.66861 18.0459 1.61395 17.9354 1.5854 17.8171C1.55685 17.6988 1.55515 17.5755 1.58041 17.4565C1.98315 15.5609 3.01216 13.856 4.50172 12.6163C5.99128 11.3767 7.85471 10.6744 9.79193 10.6227C9.85858 10.6227 9.92757 10.6227 9.99889 10.6227C10.0702 10.6227 10.1395 10.6227 10.2069 10.6227C11.5847 10.6553 12.9345 11.0189 14.1423 11.6827C15.3502 12.3466 16.3806 13.2913 17.1466 14.437C17.2037 14.5223 17.2771 14.5956 17.3625 14.6526C17.4479 14.7096 17.5438 14.7492 17.6445 14.7692C17.7452 14.7891 17.8489 14.789 17.9496 14.7689C18.0503 14.7488 18.1461 14.7091 18.2314 14.652C18.3167 14.5949 18.39 14.5215 18.447 14.4361C18.504 14.3506 18.5436 14.2548 18.5636 14.1541C18.5835 14.0533 18.5834 13.9497 18.5633 13.849C18.5432 13.7483 18.5035 13.6525 18.4464 13.5672C17.1863 11.6843 15.3331 10.2767 13.1813 9.56788C14.0753 8.90015 14.7362 7.96789 15.0705 6.90334C15.4047 5.83879 15.3953 4.69602 15.0435 3.63714C14.6917 2.57827 14.0154 1.65706 13.1105 1.0042C12.2056 0.35135 11.1182 0 10.0024 0C8.8866 0 7.79914 0.35135 6.89429 1.0042C5.98943 1.65706 5.31312 2.57827 4.96131 3.63714C4.6095 4.69602 4.60005 5.83879 4.9343 6.90334C5.26855 7.96789 5.92953 8.90015 6.82347 9.56788C5.12947 10.1244 3.61179 11.117 2.42294 12.4459C1.23408 13.7748 0.41593 15.3932 0.0506894 17.1385C-0.0218382 17.4838 -0.0164745 17.8409 0.0663901 18.1839C0.149255 18.5268 0.307536 18.847 0.529716 19.1211C0.751896 19.3952 1.03239 19.6163 1.35077 19.7683C1.66916 19.9204 2.01744 19.9995 2.37027 20H17.6265C17.9793 19.9995 18.3276 19.9204 18.646 19.7683C18.9644 19.6163 19.2449 19.3952 19.4671 19.1211C19.6892 18.847 19.8475 18.5268 19.9304 18.1839C20.0133 17.8409 20.0186 17.4838 19.9461 17.1385ZM6.24857 5.31565C6.24853 4.58219 6.46363 3.86482 6.86722 3.25238C7.27081 2.63995 7.84517 2.15933 8.51918 1.87006C9.19319 1.58079 9.93725 1.49556 10.6592 1.62493C11.3812 1.7543 12.0493 2.09259 12.581 2.5979C13.1126 3.10321 13.4843 3.75336 13.6501 4.46783C13.816 5.18231 13.7686 5.92973 13.5139 6.61754C13.2591 7.30535 12.8083 7.90335 12.2171 8.33748C11.6259 8.77161 10.9204 9.02281 10.1879 9.05998H9.99789H9.80893C8.84894 9.01031 7.94458 8.59431 7.28219 7.8977C6.6198 7.20108 6.24985 6.27692 6.24857 5.31565Z" fill="#404040"/>
</svg>
