<svg width="20" height="20" viewBox="0 0 20 20" fill="none" xmlns="http://www.w3.org/2000/svg">
<path d="M19.4141 7.42186C19.7377 7.42186 20 7.15951 20 6.83592V4.49217C20 4.25533 19.8575 4.04173 19.6387 3.95099L10.2246 0.0447364C10.0808 -0.0149121 9.91924 -0.0149121 9.77545 0.0447364L0.361368 3.95099C0.142578 4.04173 0 4.25533 0 4.49217V6.83592C0 7.15951 0.262344 7.42186 0.585938 7.42186H1.60157V14.0625H1.40625C1.08266 14.0625 0.820314 14.3248 0.820314 14.6484V16.4062H0.585938C0.262344 16.4062 0 16.6686 0 16.9922V19.4141C0 19.7377 0.262344 20 0.585938 20H19.4141C19.7377 20 20 19.7377 20 19.4141V16.9922C20 16.6686 19.7377 16.4062 19.4141 16.4062H19.1797V14.6484C19.1797 14.3248 18.9174 14.0625 18.5938 14.0625H18.3985V7.42186H19.4141ZM18.8282 17.5781V18.8281H1.17188V17.5781H18.8282ZM4.72657 15.2344V16.4062H1.99219V15.2344H4.72657ZM2.77344 14.0625V7.42186H3.94532V14.0625H2.77344ZM5.31251 14.0625H5.1172V7.42186H14.8828V14.0625H14.6875C14.3639 14.0625 14.1016 14.3248 14.1016 14.6484V16.4062H5.89845V14.6484C5.89845 14.3248 5.6361 14.0625 5.31251 14.0625ZM18.0078 15.2344V16.4062H15.2735V15.2344H18.0078ZM16.0547 14.0625V7.42186H17.2266V14.0625H16.0547ZM1.17188 6.24998V4.88342L10 1.22029L18.8282 4.88338V6.24998H1.17188Z" fill="#404040"/>
</svg>
